HIERARCHY
ROOT Hips
{
	OFFSET 0.000000 0.000000 0.000000
	CHANNELS 6 Xposition Yposition Zposition Zrotation Yrotation Xrotation 
	JOINT LHipJoint
	{
		OFFSET 0.000000 0.000000 0.000000
		CHANNELS 3 Zrotation Yrotation Xrotation
		JOINT LeftUpLeg
		{
			OFFSET 1.363060 -1.794630 0.839290
			CHANNELS 3 Zrotation Yrotation Xrotation
			JOINT LeftLeg
			{
				OFFSET 2.448110 -6.726130 0.000000
				CHANNELS 3 Zrotation Yrotation Xrotation
				JOINT LeftFoot
				{
					OFFSET 2.562200 -7.039590 0.000000
					CHANNELS 3 Zrotation Yrotation Xrotation
					JOINT LeftToeBase
					{
						OFFSET 0.157640 -0.433110 2.322550
						CHANNELS 3 Zrotation Yrotation Xrotation
						End Site
						{
							OFFSET 0.000000 0.000000 0.000000
						}
					}
				}
			}
		}
	}
	JOINT RHipJoint
	{
		OFFSET 0.000000 0.000000 0.000000
		CHANNELS 3 Zrotation Yrotation Xrotation
		JOINT RightUpLeg
		{
			OFFSET -1.305520 -1.794630 0.839290
			CHANNELS 3 Zrotation Yrotation Xrotation
			JOINT RightLeg
			{
				OFFSET -2.542530 -6.985550 0.000000
				CHANNELS 3 Zrotation Yrotation Xrotation
				JOINT RightFoot
				{
					OFFSET -2.568260 -7.056230 0.000000
					CHANNELS 3 Zrotation Yrotation Xrotation
					JOINT RightToeBase
					{
						OFFSET -0.164730 -0.452590 2.363150
						CHANNELS 3 Zrotation Yrotation Xrotation
						End Site
						{
							OFFSET 0.000000 0.000000 0.000000
						}
					}
				}
			}
		}
	}
	JOINT LowerBack
	{
		OFFSET 0.000000 0.000000 0.000000
		CHANNELS 3 Zrotation Yrotation Xrotation
		JOINT Spine
		{
			OFFSET 0.028270 2.035590 -0.193380
			CHANNELS 3 Zrotation Yrotation Xrotation
			JOINT Spine1
			{
				OFFSET 0.056720 2.048850 -0.042750
				CHANNELS 3 Zrotation Yrotation Xrotation
				JOINT Neck
				{
					OFFSET 0.000000 0.000000 0.000000
					CHANNELS 3 Zrotation Yrotation Xrotation
					JOINT Neck1
					{
						OFFSET -0.054170 1.746240 0.172020
						CHANNELS 3 Zrotation Yrotation Xrotation
						JOINT Head
						{
							OFFSET 0.104070 1.761360 -0.123970
							CHANNELS 3 Zrotation Yrotation Xrotation
							End Site
							{
								OFFSET 0.000000 0.000000 0.000000
							}
						}
					}
				}
				JOINT LeftShoulder
				{
					OFFSET 0.000000 0.000000 0.000000
					CHANNELS 3 Zrotation Yrotation Xrotation
					JOINT LeftArm
					{
						OFFSET 3.362410 1.200890 -0.311210
						CHANNELS 3 Zrotation Yrotation Xrotation
						JOINT LeftForeArm
						{
							OFFSET 4.983000 -0.000000 -0.000000
							CHANNELS 3 Zrotation Yrotation Xrotation
							JOINT LeftHand
							{
								OFFSET 3.483560 -0.000000 -0.000000
								CHANNELS 3 Zrotation Yrotation Xrotation
								JOINT LeftFingerBase
								{
									OFFSET 0.000000 0.000000 0.000000
									CHANNELS 3 Zrotation Yrotation Xrotation
									JOINT LeftHandIndex1
									{
										OFFSET 0.715260 -0.000000 -0.000000
										CHANNELS 3 Zrotation Yrotation Xrotation
										End Site
										{
											OFFSET 0.000000 0.000000 0.000000
										}
									}
								}
								JOINT LThumb
								{
									OFFSET 0.000000 0.000000 0.000000
									CHANNELS 3 Zrotation Yrotation Xrotation
									End Site
									{
										OFFSET 0.000000 0.000000 0.000000
									}
								}
							}
						}
					}
				}
				JOINT RightShoulder
				{
					OFFSET 0.000000 0.000000 0.000000
					CHANNELS 3 Zrotation Yrotation Xrotation
					JOINT RightArm
					{
						OFFSET -3.136600 1.374050 -0.404650
						CHANNELS 3 Zrotation Yrotation Xrotation
						JOINT RightForeArm
						{
							OFFSET -5.241900 -0.000000 -0.000000
							CHANNELS 3 Zrotation Yrotation Xrotation
							JOINT RightHand
							{
								OFFSET -3.444170 -0.000000 -0.000000
								CHANNELS 3 Zrotation Yrotation Xrotation
								JOINT RightFingerBase
								{
									OFFSET 0.000000 0.000000 0.000000
									CHANNELS 3 Zrotation Yrotation Xrotation
									JOINT RightHandIndex1
									{
										OFFSET -0.622530 -0.000000 -0.000000
										CHANNELS 3 Zrotation Yrotation Xrotation
										End Site
										{
											OFFSET 0.000000 0.000000 0.000000
										}
									}
								}
								JOINT RThumb
								{
									OFFSET 0.000000 0.000000 0.000000
									CHANNELS 3 Zrotation Yrotation Xrotation
									End Site
									{
										OFFSET 0.000000 0.000000 0.000000
									}
								}
							}
						}
					}
				}
			}
		}
	}
}
MOTION
Frames: 7
Frame Time: 0.008333
1.261917 17.288128 0.457214 175.435672 -48.267968 -160.583930 -8.341267 0.731813 1.116243 -15.213371 -5.916215 -28.479387 0.394785 1.191536 40.947677 5.953231 36.296289 -1.162047 6.158900 -0.000000 -41.793500 9.481467 -0.786671 6.182132 4.263896 23.488899 -24.775026 1.283565 -0.749274 19.099161 -1.018443 -3.225675 -6.235949 -0.399500 0.000000 -51.085100 -4.347331 0.011241 -7.376414 -2.007145 0.045477 -3.836157 -7.960955 0.121628 1.899745 9.487510 -11.506040 -6.730311 -2.796525 -0.233433 0.262800 0.000000 0.000000 0.000000 1.994694 17.237140 2.007391 -66.499788 10.752459 -4.178762 -3.429135 -27.794605 0.013784 9.297313 -2.233646 -0.178956 -0.109966 -0.052202 -0.000000 0.000000 0.000000 0.000000 0.000000 0.000000 0.000000 8.014913 -5.896440 -4.884088 89.781130 25.386947 33.665656 -179.888576 76.663472 179.924721 -8.120967 14.015293 -1.079064 0.148139 -0.855661 -0.000000 0.000000 0.000000 0.000000 0.000000 0.000000 0.000000 
1.284070 17.287950 0.449345 175.074018 -47.736151 -160.459302 -8.311900 0.599934 1.308771 -15.002824 -8.059558 -29.640682 0.626018 1.415800 44.630003 5.699306 35.468979 1.145669 7.362700 -0.000000 -43.583200 9.591503 -0.690622 6.041202 3.918252 23.653395 -24.666164 1.231529 -0.816900 19.520482 -0.998244 -3.105422 -6.299099 -0.376600 0.000000 -51.524300 -4.418244 0.099638 -7.267490 -2.024840 0.142077 -3.820065 -7.943093 0.218964 1.877659 9.254842 -11.373213 -6.661961 -2.772552 -0.232294 0.277974 0.000000 0.000000 0.000000 1.824246 17.469784 2.018641 -66.804834 10.819662 -4.473572 -3.420041 -27.583316 0.014010 9.337864 -2.257873 -0.181570 -0.107621 -0.053831 -0.000000 0.000000 0.000000 0.000000 0.000000 0.000000 0.000000 7.556089 -5.738988 -4.996702 90.121853 25.624704 33.700905 -179.867007 76.033149 179.921600 -8.288149 14.083333 -1.107058 0.149785 -0.865335 -0.000000 0.000000 0.000000 0.000000 0.000000 0.000000 0.000000 
1.304822 17.288333 0.444677 174.716500 -47.247779 -160.382011 -8.291473 0.463425 1.485548 -14.823988 -10.143790 -30.769782 0.848110 1.629403 48.275127 5.406021 34.295089 3.546834 8.382100 0.000000 -44.844600 9.697261 -0.591720 5.880899 3.596496 23.804538 -24.467098 1.183808 -0.883132 19.914792 -0.983526 -3.013527 -6.375266 -0.355099 0.000000 -51.905700 -4.465106 0.189501 -7.111438 -2.035854 0.239258 -3.796109 -7.915857 0.316740 1.851638 9.009294 -11.240436 -6.591534 -2.748101 -0.231084 0.293242 0.000000 0.000000 0.000000 1.634321 17.691435 2.029885 -67.130474 10.864116 -4.773950 -3.408467 -27.365727 0.014231 9.377187 -2.292704 -0.185086 -0.105107 -0.055363 -0.000000 0.000000 0.000000 0.000000 0.000000 0.000000 0.000000 7.086473 -5.582620 -5.108374 90.379535 25.865943 33.685350 -179.844075 75.407376 179.918440 -8.450917 14.138410 -1.133667 0.151045 -0.874263 -0.000000 0.000000 0.000000 0.000000 0.000000 0.000000 0.000000 
1.323971 17.289352 0.442498 174.356027 -46.796977 -160.342135 -8.276016 0.322928 1.647342 -14.698374 -12.149710 -31.853725 1.059219 1.830483 51.832394 5.095840 32.864480 5.996976 9.186200 -0.000000 -45.783000 9.801510 -0.492117 5.703374 3.295235 23.922777 -24.189237 1.141449 -0.948013 20.280830 -0.969241 -2.924459 -6.457437 -0.333900 0.000000 -52.255800 -4.498856 0.280388 -6.916882 -2.042923 0.337397 -3.765434 -7.881735 0.415376 1.824025 8.759896 -11.112602 -6.519774 -2.724589 -0.229920 0.308427 0.000000 0.000000 0.000000 1.434335 17.903399 2.039607 -67.473409 10.893142 -5.078281 -3.394417 -27.145594 0.014464 9.418359 -2.338604 -0.189499 -0.102445 -0.056865 -0.000000 0.000000 0.000000 0.000000 0.000000 0.000000 0.000000 6.623792 -5.431557 -5.217361 90.556284 26.111483 33.627523 -179.820728 74.789677 179.915363 -8.601966 14.178161 -1.157587 0.151944 -0.882401 -0.000000 0.000000 0.000000 0.000000 0.000000 0.000000 0.000000 
1.341437 17.291034 0.442066 173.991247 -46.377946 -160.332810 -8.263883 0.180479 1.792514 -14.641740 -14.041368 -32.896980 1.256117 2.020997 55.284598 4.785046 31.226216 8.367972 9.711401 0.000000 -45.973200 9.905247 -0.394964 5.514103 3.014406 23.994067 -23.849167 1.105376 -1.011054 20.614666 -0.951279 -2.817719 -6.535811 -0.312400 0.000000 -52.600799 -4.526452 0.372063 -6.695236 -2.047967 0.436598 -3.729617 -7.843085 0.515015 1.797893 8.515093 -10.994646 -6.448035 -2.703032 -0.228883 0.323258 0.000000 0.000000 0.000000 1.233732 18.110627 2.046194 -67.830069 10.912467 -5.382283 -3.378086 -26.925932 0.014714 9.463432 -2.394524 -0.194913 -0.099685 -0.058384 -0.000000 0.000000 0.000000 0.000000 0.000000 0.000000 0.000000 6.183449 -5.290244 -5.322468 90.656958 26.362777 33.537655 -179.797963 74.185041 179.912493 -8.734978 14.200551 -1.177817 0.152517 -0.889684 -0.000000 0.000000 0.000000 0.000000 0.000000 0.000000 0.000000 
1.357069 17.293442 0.442612 173.620983 -45.983643 -160.342239 -8.252746 0.036897 1.923390 -14.664757 -15.801179 -33.904515 1.439102 2.201388 58.606655 4.491210 29.483549 10.615487 9.987900 0.000000 -45.692300 10.010582 -0.302509 5.318002 2.748085 24.002288 -23.468675 1.075846 -1.071574 20.914796 -0.925427 -2.670987 -6.603072 -0.289900 0.000001 -52.953000 -4.557422 0.463865 -6.460603 -2.053505 0.536644 -3.690868 -7.802997 0.615440 1.775734 8.283772 -10.890239 -6.377023 -2.684766 -0.228088 0.337650 0.000000 0.000000 0.000000 1.041852 18.314594 2.048408 -68.195666 10.932590 -5.684167 -3.359768 -26.715465 0.014985 9.512356 -2.456716 -0.201026 -0.096874 -0.059975 -0.000000 0.000000 0.000000 0.000000 0.000000 0.000000 0.000000 5.782130 -5.162016 -5.422027 90.688801 26.621393 33.426705 -179.777084 73.598533 179.909937 -8.844887 14.205087 -1.193452 0.152853 -0.896103 -0.000000 0.000000 0.000000 0.000000 0.000000 0.000000 0.000000 
1.370782 17.296616 0.443333 173.243784 -45.607322 -160.354437 -8.241319 -0.108742 2.045619 -14.766948 -17.421732 -34.897969 1.610051 2.371622 61.788585 4.231799 27.768966 12.735328 10.093100 0.000000 -45.240500 10.118321 -0.216796 5.122210 2.489913 23.934921 -23.078504 1.052495 -1.128042 21.177739 -0.888121 -2.465339 -6.649113 -0.266300 0.000000 -53.350501 -4.597112 0.555607 -6.232794 -2.061081 0.637202 -3.652122 -7.763643 0.716273 1.761580 8.073038 -10.801921 -6.309331 -2.670553 -0.227581 0.351084 0.000000 0.000000 0.000000 0.865528 18.526275 2.044631 -68.564076 10.954093 -5.975959 -3.340257 -26.517033 0.015279 9.564047 -2.519702 -0.207239 -0.094097 -0.061661 -0.000000 0.000000 0.000000 0.000000 0.000000 0.000000 0.000000 5.432674 -5.049077 -5.515245 90.659699 26.886635 33.305137 -179.759126 73.037181 179.907796 -8.928118 14.191821 -1.203989 0.153036 -0.901605 -0.000000 0.000000 0.000000 0.000000 0.000000 0.000000 0.000000 
